<svg width="20" height="20" viewBox="0 0 20 20" fill="none" xmlns="http://www.w3.org/2000/svg">
<g clip-path="url(#clip0_264_711)">
<g clip-path="url(#clip1_264_711)">
<path d="M20 16.001C20 18.2098 18.2098 20.0008 15.9994 20.0008H3.99984C1.79102 20.0008 0 18.2098 0 16.001V4.00064C0 1.79102 1.79102 0 3.99984 0H15.9994C18.2098 0 20 1.79102 20 4.00064V16.001Z" fill="white"/>
<path d="M15.8583 1.52881H4.14241C2.64856 1.52881 1.4375 2.74386 1.4375 4.2433V10.6828C1.4375 12.1823 2.64856 13.3973 4.14241 13.3973H8.17819L9.55541 15.6397C9.55541 15.6397 9.57059 15.666 9.60015 15.7036C9.68083 15.8418 9.82942 15.9353 10.0004 15.9353C10.1713 15.9353 10.3183 15.8426 10.399 15.706C10.4333 15.6653 10.4453 15.6389 10.4453 15.6389L11.8225 13.3965H15.8583C17.3522 13.3965 18.5632 12.1815 18.5632 10.682V4.2433C18.5632 2.74386 17.3522 1.52881 15.8583 1.52881Z" fill="#BC96EA"/>
<path d="M5.24119 6.24745C5.24119 6.24745 4.77386 6.24745 4.34967 6.66045V4.99805H3.30078V9.36616H4.36006V9.02425C4.36006 9.02425 4.6101 9.4756 5.24039 9.4756C5.24039 9.4756 6.71826 9.42128 6.71826 7.84515C6.71826 7.84515 6.66394 6.24745 5.24039 6.24745H5.24119ZM5.01032 8.55293C4.63806 8.55293 4.33609 8.25096 4.33609 7.8787C4.33609 7.50643 4.63806 7.20527 5.01032 7.20527C5.38258 7.20527 5.68375 7.50723 5.68375 7.8787C5.68375 8.25016 5.38178 8.55293 5.01032 8.55293Z" fill="white"/>
<path d="M7.05469 4.8999V5.91045C7.05469 5.91045 7.5332 5.88888 7.5332 6.7796V9.36547H8.54374V6.54074C8.54374 6.54074 8.58688 4.8999 7.05469 4.8999Z" fill="white"/>
<path d="M11.0161 6.26123C11.0161 6.26123 9.2834 6.26123 9.2834 7.8789C9.2834 7.8789 9.22748 9.475 11.0161 9.475C11.0161 9.475 12.7887 9.47261 12.7887 7.8789C12.7887 7.8789 12.8463 6.26123 11.0161 6.26123ZM11.0161 8.55313C10.6438 8.55313 10.3419 8.25117 10.3419 7.8789C10.3419 7.50664 10.6438 7.20547 11.0161 7.20547C11.3884 7.20547 11.6895 7.50744 11.6895 7.8789C11.6895 8.25037 11.3876 8.55313 11.0161 8.55313Z" fill="white"/>
<path d="M15.6814 6.36729V6.66047C15.6814 6.66047 15.3802 6.26104 14.8018 6.26104C14.8018 6.26104 13.3184 6.19873 13.3184 7.86753C13.3184 7.86753 13.3016 9.42289 14.7611 9.42289C14.7611 9.42289 15.3562 9.44686 15.6814 9.02347V9.26791C15.6814 9.26791 15.7549 10.034 15.0135 10.034H14.7611V10.9631H15.1685C15.1685 10.9631 16.7007 10.9798 16.7007 9.32543V6.36729H15.6822H15.6814ZM15.0551 8.55294C14.6828 8.55294 14.3816 8.25098 14.3816 7.87871C14.3816 7.50645 14.6828 7.20528 15.0551 7.20528C15.4273 7.20528 15.7285 7.50725 15.7285 7.87871C15.7285 8.25018 15.4265 8.55294 15.0551 8.55294Z" fill="white"/>
</g>
</g>
<defs>
<clipPath id="clip0_264_711">
<rect width="20" height="20" fill="white"/>
</clipPath>
<clipPath id="clip1_264_711">
<rect width="20" height="20" fill="white"/>
</clipPath>
</defs>
</svg>
