<svg width="20" height="20" viewBox="0 0 20 20" fill="none" xmlns="http://www.w3.org/2000/svg">
<path d="M16.9419 3.69036C15.6279 3.08877 14.2407 2.66198 12.8158 2.4209C12.6208 2.76947 12.4443 3.12811 12.2872 3.4953C10.7694 3.26658 9.22584 3.26658 7.70801 3.4953C7.55079 3.12814 7.37437 2.76951 7.17946 2.4209C5.75361 2.66402 4.3655 3.09182 3.05016 3.69351C0.43887 7.55696 -0.269009 11.3245 0.0849305 15.0385C1.61417 16.1683 3.32582 17.0276 5.14548 17.579C5.55522 17.0279 5.91778 16.4433 6.22933 15.8313C5.63759 15.6103 5.06646 15.3376 4.52255 15.0164C4.6657 14.9126 4.8057 14.8056 4.94098 14.7018C6.52364 15.4461 8.25103 15.832 9.99996 15.832C11.7489 15.832 13.4763 15.4461 15.0589 14.7018C15.1958 14.8135 15.3358 14.9205 15.4774 15.0164C14.9324 15.3381 14.3602 15.6113 13.7675 15.8329C14.0786 16.4445 14.4412 17.0287 14.8513 17.579C16.6725 17.0298 18.3855 16.1709 19.915 15.04C20.3303 10.733 19.2055 7.00009 16.9419 3.69036ZM6.67765 12.7544C5.69134 12.7544 4.87649 11.8593 4.87649 10.7581C4.87649 9.657 5.66302 8.75406 6.6745 8.75406C7.68598 8.75406 8.49454 9.657 8.47724 10.7581C8.45993 11.8593 7.68284 12.7544 6.67765 12.7544ZM13.3223 12.7544C12.3344 12.7544 11.5227 11.8593 11.5227 10.7581C11.5227 9.657 12.3092 8.75406 13.3223 8.75406C14.3353 8.75406 15.1376 9.657 15.1203 10.7581C15.103 11.8593 14.3275 12.7544 13.3223 12.7544Z" fill="#5865F2"/>
</svg>
