<svg width="20" height="20" viewBox="0 0 20 20" fill="none" xmlns="http://www.w3.org/2000/svg">
<g clip-path="url(#clip0_263_1300)">
<path d="M16.9419 3.69037C15.6279 3.08877 14.2407 2.66198 12.8158 2.4209C12.6208 2.76947 12.4444 3.12811 12.2872 3.4953C10.7694 3.26658 9.22586 3.26658 7.70802 3.4953C7.55081 3.12815 7.37438 2.76951 7.17947 2.4209C5.75362 2.66402 4.36551 3.09182 3.05017 3.69351C0.438871 7.55697 -0.26901 11.3245 0.0849306 15.0385C1.61417 16.1684 3.32583 17.0276 5.14549 17.579C5.55523 17.0279 5.91779 16.4433 6.22934 15.8313C5.6376 15.6103 5.06647 15.3376 4.52256 15.0165C4.66571 14.9126 4.80571 14.8057 4.94099 14.7018C6.52365 15.4461 8.25105 15.832 9.99998 15.832C11.7489 15.832 13.4763 15.4461 15.059 14.7018C15.1958 14.8135 15.3358 14.9205 15.4774 15.0165C14.9324 15.3382 14.3603 15.6113 13.7675 15.8329C14.0786 16.4446 14.4412 17.0287 14.8513 17.579C16.6726 17.0299 18.3855 16.171 19.915 15.0401C20.3303 10.733 19.2056 7.0001 16.9419 3.69037ZM6.67766 12.7544C5.69135 12.7544 4.8765 11.8593 4.8765 10.7582C4.8765 9.65702 5.66303 8.75407 6.67452 8.75407C7.686 8.75407 8.49456 9.65702 8.47725 10.7582C8.45995 11.8593 7.68285 12.7544 6.67766 12.7544ZM13.3223 12.7544C12.3344 12.7544 11.5227 11.8593 11.5227 10.7582C11.5227 9.65702 12.3092 8.75407 13.3223 8.75407C14.3354 8.75407 15.1376 9.65702 15.1203 10.7582C15.103 11.8593 14.3275 12.7544 13.3223 12.7544Z" fill="white"/>
</g>
<defs>
<clipPath id="clip0_263_1300">
<rect width="20" height="20" fill="white"/>
</clipPath>
</defs>
</svg>
