<svg width="20" height="20" viewBox="0 0 20 20" fill="none" xmlns="http://www.w3.org/2000/svg">
<path d="M19.9997 10.0001C19.9997 15.5226 15.5223 20 9.99986 20C4.4774 20 0 15.5226 0 10.0001C0 4.47764 4.4774 0.000244141 9.99986 0.000244141C15.5235 0.000244141 19.9997 4.47764 19.9997 10.0001Z" fill="#2081E2"/>
<path d="M4.93421 10.3362L4.97735 10.2684L7.57871 6.19891C7.61673 6.13933 7.70611 6.14549 7.73487 6.21021C8.16946 7.18417 8.54446 8.39548 8.36878 9.14959C8.29378 9.45986 8.08831 9.88006 7.85713 10.2684C7.82735 10.3249 7.79447 10.3804 7.75953 10.4338C7.74309 10.4585 7.71535 10.4729 7.68555 10.4729H5.01023C4.93831 10.4729 4.89619 10.3948 4.93421 10.3362Z" fill="white"/>
<path d="M16.5279 11.0923V11.7365C16.5279 11.7735 16.5053 11.8064 16.4724 11.8208C16.2711 11.9071 15.5817 12.2235 15.2951 12.6221C14.5636 13.6403 14.0047 15.0961 12.7553 15.0961H7.54337C5.69614 15.0961 4.19922 13.594 4.19922 11.7406V11.681C4.19922 11.6317 4.23928 11.5917 4.2886 11.5917H7.19408C7.2516 11.5917 7.29372 11.6451 7.2886 11.7016C7.26804 11.8906 7.30298 12.0838 7.39235 12.2594C7.56495 12.6098 7.92249 12.8286 8.30878 12.8286H9.74714V11.7057H8.32522C8.25228 11.7057 8.20914 11.6214 8.25126 11.5619C8.26666 11.5382 8.28414 11.5136 8.30262 11.4858C8.43722 11.2947 8.62934 10.9978 8.82043 10.6598C8.95091 10.4317 9.07727 10.1882 9.17899 9.94372C9.19955 9.89954 9.21597 9.85432 9.23241 9.81014C9.26015 9.73206 9.28893 9.65912 9.30947 9.58619C9.33003 9.52453 9.34645 9.45981 9.36289 9.39919C9.41119 9.19165 9.43173 8.97179 9.43173 8.74372C9.43173 8.65434 9.42763 8.56084 9.41941 8.47146C9.41529 8.37386 9.40297 8.27624 9.39063 8.17865C9.38241 8.09235 9.36701 8.00707 9.35057 7.91769C9.33003 7.78721 9.30125 7.65777 9.26837 7.52727L9.25707 7.47798C9.23241 7.38858 9.21187 7.30332 9.18311 7.21394C9.10193 6.93344 9.00845 6.66017 8.90981 6.40435C8.87385 6.30263 8.83275 6.20503 8.79165 6.10743C8.73106 5.96052 8.6694 5.82696 8.6129 5.70058C8.58414 5.64304 8.55948 5.59064 8.53482 5.53722C8.50708 5.4766 8.47832 5.41598 8.44954 5.35847C8.429 5.31429 8.40536 5.27319 8.38892 5.23209L8.21324 4.90743C8.18858 4.86325 8.22968 4.81085 8.27796 4.82421L9.37729 5.12215H9.38037C9.38241 5.12215 9.38345 5.12319 9.38447 5.12319L9.52932 5.16325L9.68858 5.20847L9.74714 5.22489V4.57148C9.74714 4.25606 9.99988 4.00024 10.3122 4.00024C10.4684 4.00024 10.6101 4.06394 10.7119 4.1677C10.8136 4.27148 10.8773 4.41326 10.8773 4.57148V5.54134L10.9944 5.5742C11.0036 5.5773 11.0129 5.5814 11.0211 5.58756C11.0499 5.60914 11.091 5.64098 11.1434 5.68004C11.1845 5.7129 11.2286 5.75298 11.2821 5.79408C11.3879 5.87934 11.5143 5.98928 11.653 6.11565C11.6899 6.14749 11.7259 6.18037 11.7588 6.21325C11.9376 6.37969 12.1379 6.57489 12.329 6.79065C12.3824 6.85126 12.4348 6.9129 12.4882 6.97762C12.5416 7.04338 12.5982 7.1081 12.6475 7.17284C12.7122 7.25914 12.7821 7.34852 12.8427 7.44202C12.8714 7.4862 12.9043 7.53139 12.9321 7.57557C13.0101 7.69371 13.079 7.81599 13.1447 7.93825C13.1725 7.99475 13.2012 8.05639 13.2259 8.11701C13.2988 8.28036 13.3564 8.4468 13.3933 8.61324C13.4046 8.6492 13.4129 8.68824 13.417 8.72318V8.7314C13.4293 8.7807 13.4334 8.8331 13.4375 8.88652C13.454 9.05707 13.4457 9.22761 13.4088 9.39919C13.3934 9.47215 13.3728 9.54097 13.3482 9.61393C13.3235 9.68378 13.2988 9.75672 13.267 9.82556C13.2054 9.96836 13.1324 10.1112 13.0461 10.2447C13.0184 10.2941 12.9855 10.3465 12.9526 10.3958C12.9166 10.4482 12.8797 10.4975 12.8468 10.5458C12.8016 10.6074 12.7533 10.6721 12.704 10.7297C12.6598 10.7903 12.6146 10.8509 12.5653 10.9043C12.4964 10.9855 12.4307 11.0625 12.3618 11.1365C12.3208 11.1848 12.2766 11.2341 12.2314 11.2783C12.1872 11.3276 12.142 11.3718 12.1009 11.4129C12.0321 11.4817 11.9745 11.5351 11.9262 11.5793L11.8132 11.6831C11.7968 11.6975 11.7752 11.7057 11.7526 11.7057H10.8773V12.8286H11.9786C12.2252 12.8286 12.4595 12.7413 12.6485 12.581C12.7132 12.5245 12.9958 12.28 13.3297 11.9112C13.341 11.8988 13.3554 11.8896 13.3718 11.8855L16.4139 11.006C16.4704 10.9896 16.5279 11.0327 16.5279 11.0923Z" fill="white"/>
</svg>
