<svg width="20" height="20" viewBox="0 0 20 20" fill="none" xmlns="http://www.w3.org/2000/svg">
<path d="M1.1892 11.2785L1.25917 11.1685L5.47918 4.56684C5.54086 4.47015 5.68585 4.48018 5.73253 4.58515C6.4375 6.16518 7.04587 8.13018 6.76086 9.3535C6.6392 9.85682 6.30585 10.5385 5.93084 11.1685C5.88253 11.2602 5.82918 11.3502 5.77251 11.4368C5.74587 11.4768 5.70084 11.5002 5.6525 11.5002H1.31252C1.19583 11.5002 1.12752 11.3735 1.1892 11.2785Z" fill="white"/>
<path d="M20 12.505V13.55C20 13.61 19.9633 13.6633 19.91 13.6867C19.5833 13.8267 18.465 14.34 18 14.9867C16.8133 16.6383 15.9067 19 13.88 19H5.42498C2.42833 19 0 16.5633 0 13.5567V13.46C0 13.38 0.0649967 13.315 0.144989 13.315H4.85833C4.95166 13.315 5.02001 13.4017 5.01168 13.4933C4.97833 13.8 5.035 14.1133 5.17999 14.3983C5.45999 14.9667 6.04001 15.3217 6.66666 15.3217H9V13.5H6.69333C6.57498 13.5 6.50501 13.3633 6.57332 13.2667C6.59834 13.2283 6.62668 13.1883 6.65667 13.1433C6.87498 12.8333 7.18666 12.3517 7.49665 11.8033C7.70833 11.4333 7.91334 11.0383 8.07833 10.6417C8.11168 10.57 8.13832 10.4967 8.165 10.425C8.20999 10.2983 8.25667 10.18 8.28998 10.0617C8.32332 9.96168 8.35 9.85667 8.37668 9.75833C8.45501 9.42167 8.48832 9.065 8.48832 8.69499C8.48832 8.55 8.48165 8.39834 8.46831 8.25332C8.46168 8.09499 8.44167 7.93666 8.42167 7.77834C8.40833 7.63832 8.38335 7.5 8.35667 7.35501C8.32333 7.14333 8.27668 6.93335 8.22332 6.72167L8.20501 6.64167C8.165 6.49669 8.13165 6.35833 8.085 6.21334C7.95332 5.75833 7.80166 5.315 7.64167 4.9C7.58335 4.735 7.51665 4.57668 7.45 4.41835C7.35166 4.17999 7.25166 3.96334 7.15999 3.75833C7.11334 3.665 7.07332 3.57999 7.03335 3.49333C6.98832 3.39499 6.94167 3.29668 6.89499 3.20332C6.86168 3.13165 6.82332 3.065 6.79665 2.99834L6.51168 2.47167C6.47167 2.4 6.53832 2.315 6.61666 2.33666L8.4 2.82001H8.40501C8.40833 2.82001 8.40999 2.82167 8.41168 2.82167L8.64665 2.88666L8.90501 2.95999L9 2.98666V1.92668C9 1.415 9.40999 1 9.91665 1C10.17 1 10.4 1.10332 10.565 1.27167C10.73 1.44001 10.8333 1.67001 10.8333 1.92668V3.5L11.0233 3.55332C11.0383 3.55833 11.0533 3.565 11.0667 3.57498C11.1133 3.60999 11.18 3.66168 11.265 3.72498C11.3317 3.77833 11.4033 3.84333 11.49 3.90999C11.6617 4.04834 11.8667 4.22668 12.0917 4.43165C12.1517 4.48335 12.21 4.53666 12.2633 4.59001C12.5533 4.85999 12.8783 5.17668 13.1883 5.52668C13.275 5.62498 13.36 5.72498 13.4466 5.82999C13.5333 5.93666 13.625 6.04167 13.705 6.14668C13.81 6.28666 13.9233 6.43165 14.0217 6.58335C14.0683 6.65501 14.1217 6.72833 14.1667 6.8C14.2933 6.99167 14.405 7.19001 14.5117 7.38832C14.5567 7.47999 14.6033 7.57999 14.6433 7.67834C14.7616 7.94333 14.855 8.21334 14.915 8.48335C14.9333 8.54167 14.9466 8.60501 14.9533 8.66168V8.67498C14.9733 8.75501 14.98 8.84002 14.9867 8.92668C15.0133 9.20332 15 9.47999 14.94 9.75833C14.915 9.87668 14.8817 9.98832 14.8417 10.1067C14.8017 10.22 14.7616 10.3383 14.71 10.45C14.61 10.6817 14.4917 10.9133 14.3517 11.13C14.3067 11.21 14.2533 11.295 14.2 11.375C14.1417 11.46 14.0817 11.54 14.0283 11.6184C13.955 11.7184 13.8767 11.8233 13.7966 11.9167C13.725 12.015 13.6517 12.1133 13.5717 12.2C13.46 12.3317 13.3533 12.4567 13.2417 12.5767C13.175 12.655 13.1033 12.735 13.03 12.8067C12.9583 12.8867 12.885 12.9583 12.8183 13.025C12.7067 13.1367 12.6133 13.2233 12.535 13.295L12.3517 13.4633C12.325 13.4867 12.29 13.5 12.2533 13.5H10.8333V15.3217H12.62C13.02 15.3217 13.4 15.18 13.7067 14.92C13.8116 14.8283 14.27 14.4317 14.8117 13.8333C14.83 13.8133 14.8533 13.7983 14.88 13.7917L19.815 12.365C19.9067 12.3383 20 12.4083 20 12.505Z" fill="white"/>
</svg>
