<svg width="20" height="20" viewBox="0 0 20 20" fill="none" xmlns="http://www.w3.org/2000/svg">
<path d="M17.8928 5.95059C17.9049 6.12559 17.9049 6.30059 17.9049 6.47721C17.9049 11.8587 13.8081 18.0651 6.31696 18.0651V18.0619C4.10406 18.0651 1.93712 17.4312 0.0742188 16.2361C0.395993 16.2748 0.71938 16.2941 1.04357 16.2949C2.87744 16.2966 4.6589 15.6812 6.10164 14.5482C4.3589 14.5151 2.83067 13.3788 2.2968 11.7199C2.90728 11.8377 3.53632 11.8135 4.13551 11.6498C2.23551 11.2659 0.868574 9.59656 0.868574 7.65785V7.60624C1.4347 7.92156 2.06857 8.09656 2.71696 8.11592C0.927445 6.91995 0.375832 4.5393 1.45648 2.67801C3.52422 5.22237 6.57503 6.76914 9.85003 6.93285C9.5218 5.51833 9.97019 4.03608 11.0283 3.04172C12.6686 1.49979 15.2484 1.57882 16.7903 3.21833C17.7024 3.0385 18.5766 2.70382 19.3766 2.22963C19.0726 3.17237 18.4363 3.97317 17.5863 4.48204C18.3936 4.38688 19.1823 4.17075 19.925 3.84092C19.3783 4.66027 18.6895 5.37398 17.8928 5.95059Z" fill="white"/>
</svg>
