<svg width="20" height="20" viewBox="0 0 20 20" fill="none" xmlns="http://www.w3.org/2000/svg">
<path d="M4.87695 11.1503L7.07272 17.2279C7.07272 17.2279 7.34725 17.7965 7.64122 17.7965C7.93518 17.7965 12.3074 13.248 12.3074 13.248L17.1695 3.85693L4.9553 9.58148L4.87695 11.1503Z" fill="#C8DAEA"/>
<path d="M7.78827 12.709L7.36676 17.1887C7.36676 17.1887 7.19032 18.5614 8.56265 17.1887C9.93499 15.8161 11.2486 14.7576 11.2486 14.7576" fill="#A9C6D8"/>
<path d="M4.91725 11.3673L0.400472 9.89567C0.400472 9.89567 -0.139333 9.67666 0.0344845 9.18004C0.0702658 9.07763 0.142445 8.99049 0.358367 8.84073C1.35916 8.14315 18.8823 1.84487 18.8823 1.84487C18.8823 1.84487 19.3771 1.67814 19.6689 1.78904C19.7411 1.81138 19.806 1.8525 19.8571 1.90819C19.9082 1.96388 19.9436 2.03213 19.9596 2.10598C19.9911 2.2364 20.0043 2.37059 19.9988 2.50466C19.9974 2.62064 19.9833 2.72814 19.9727 2.89671C19.866 4.61869 16.6722 17.4704 16.6722 17.4704C16.6722 17.4704 16.4811 18.2224 15.7965 18.2481C15.6282 18.2536 15.4606 18.2251 15.3036 18.1643C15.1466 18.1036 15.0034 18.0119 14.8827 17.8946C13.5392 16.739 8.89561 13.6183 7.86952 12.932C7.84637 12.9162 7.82688 12.8957 7.81235 12.8717C7.79783 12.8478 7.7886 12.821 7.78531 12.7932C7.77096 12.7208 7.84962 12.6312 7.84962 12.6312C7.84962 12.6312 15.9353 5.44413 16.1504 4.68964C16.1671 4.63118 16.1042 4.60234 16.0196 4.62795C15.4826 4.82551 6.17299 10.7046 5.14551 11.3534C5.07155 11.3758 4.99338 11.3806 4.91725 11.3673Z" fill="white"/>
</svg>
