<svg width="20" height="20" viewBox="0 0 20 20" fill="none" xmlns="http://www.w3.org/2000/svg">
<path d="M20 3.79729C19.2642 4.12369 18.4733 4.34419 17.6434 4.44339C18.4905 3.93559 19.1412 3.13149 19.4475 2.17329C18.6546 2.64359 17.7765 2.98499 16.8418 3.16899C16.0934 2.37149 15.027 1.87329 13.8468 1.87329C11.5808 1.87329 9.74348 3.71039 9.74348 5.9764C9.74348 6.298 9.77979 6.6112 9.84978 6.9115C6.43958 6.7404 3.41617 5.1068 1.39237 2.62429C1.03917 3.23029 0.836767 3.9351 0.836767 4.6871C0.836767 6.1107 1.56117 7.3666 2.66217 8.1024C1.98957 8.0811 1.35687 7.8965 0.803667 7.5892C0.803201 7.6063 0.803201 7.6235 0.803201 7.6408C0.803201 9.6288 2.2176 11.2871 4.09471 11.6643C3.75041 11.7581 3.38791 11.8082 3.0137 11.8082C2.7493 11.8082 2.49231 11.7824 2.24171 11.7346C2.76391 13.3647 4.27921 14.551 6.07481 14.584C4.67051 15.6846 2.90131 16.3406 0.978802 16.3406C0.647601 16.3406 0.321001 16.3211 0 16.2832C1.8159 17.4475 3.97271 18.1268 6.28991 18.1268C13.8372 18.1268 17.9645 11.8745 17.9645 6.4521C17.9645 6.2742 17.9605 6.0973 17.9526 5.9212C18.7542 5.34279 19.4499 4.62019 20 3.79729Z" fill="#2AA9E0"/>
</svg>
